PathFileType	4	(X/Y/Z)	C:/Users/beibeiliu/ov580/test_trc/User2\sequence.26_training_dense_right.trc
DataRate	CameraRate	NumFrames	NumMarkers	Units	OrigDataRate	OrigDataStartFrame	OrigNumFrames
120	120	18	19	mm	120	136	361
Frame#	Time	ThumbCMC			ThumbMCP			ThumbIP			ThumbTip			IndexMCP			IndexPIP			IndexTip			MiddleMCP			MiddlePIP			MiddleTip			RingMCP			RingPIP			RingTip			PinkyMCP			PinkyPIP			PinkyTip			BackHand1			BackHand2			BackHand3	
		X0	Y0	Z0	X1	Y1	Z1	X2	Y2	Z2	X3	Y3	Z3	X4	Y4	Z4	X5	Y5	Z5	X6	Y6	Z6	X7	Y7	Z7	X8	Y8	Z8	X9	Y9	Z9	X10	Y10	Z10	X11	Y11	Z11	X12	Y12	Z12	X13	Y13	Z13	X14	Y14	Z14	X15	Y15	Z15	X16	Y16	Z16	X17	Y17	Z17	X18	Y18	Z18	
135	1.125	70.1599	-19.9114	80.1669	42.4485	-37.2343	70.0926	13.604	-49.9103	52.977	-0.647242	-62.3233	38.5428	71.9593	-0.722071	2.3239	64.9763	0.648565	-26.5506	56.413	-0.881801	-54.2446	101.8	-11.9205	-17.2728	97.1835	-15.6224	-48.4159	91.7924	-24.8949	-77.2895	105.385	-45.7204	-17.698	88.4749	-72.3609	-19.9124	80.9422	-81.955	11.2295	120.316	-65.8976	0.804564	96.0148	-90.8699	8.81089	87.36	-84.4987	37.7952	131.301	-22.0474	36.3173	143.031	-15.8588	71.8877	106.522	-3.43045	58.7431	
136	1.13333	69.8328	-22.6447	83.5852	45.4931	-40.6147	67.5518	18.4015	-53.6199	52.3485	0.655295	-65.3299	37.0409	75.1257	-3.59264	2.07	59.9944	1.89533	-23.2712	52.6268	-2.39009	-54.852	101.232	-12.2548	-15.0619	94.9786	-14.0598	-44.9948	91.2608	-26.6969	-76.2356	109.726	-45.39	-14.4497	92.8062	-71.4567	-21.1033	81.4763	-83.4069	13.3952	121.306	-65.1691	-0.238584	98.4079	-90.5373	8.73014	87.5107	-82.4835	37.1152	131.731	-20.6013	36.9157	144.024	-19.5785	72.6823	106.914	-2.96189	60.1595	
137	1.14167	68.1302	-23.9443	83.7944	43.3282	-41.6531	66.787	14.8785	-53.6608	49.8069	4.06218	-68.3103	35.0261	72.3402	-1.19078	-0.0638976	59.4293	1.0701	-24.4993	49.2187	-2.71209	-51.734	100.882	-11.3924	-13.8613	93.415	-15.1546	-50.1197	86.3991	-31.0797	-76.0478	108.497	-45.5303	-16.6833	88.9524	-72.6772	-19.3187	80.0895	-80.489	15.7065	118.624	-66.6654	-0.646214	97.86	-89.288	8.54833	91.9134	-83.3265	41.5144	134.777	-21.5207	39.2369	139.527	-15.0631	72.4038	102.971	-2.77388	61.8575	
138	1.15	67.6196	-23.618	83.2903	42.7072	-41.0775	68.3371	16.3769	-54.8857	48.5754	3.33893	-69.4473	29.1197	73.5478	-0.282427	0.681679	58.6835	2.10956	-26.9444	49.6558	-8.42357	-51.9174	101.194	-9.00968	-14.1576	92.9564	-18.7194	-49.4104	86.8688	-40.3984	-70.5359	108.868	-43.4862	-12.2435	92.1917	-73.3513	-18.3428	80.2007	-78.5903	16.1777	119.012	-65.8296	0.648824	96.7612	-87.3036	10.9236	90.3957	-79.8686	43.4019	131.004	-18.3291	38.9206	142.274	-16.6455	72.0643	105.165	-3.93156	65.6445	
139	1.15833	71.3531	-24.4363	83.2908	46.3515	-41.6339	64.2915	19.8312	-56.4359	45.0945	15.4158	-70.8889	24.365	70.4781	2.72873	3.77175	57.2716	1.32215	-26.6811	46.6693	-13.6903	-47.6944	99.8678	-8.08456	-12.377	91.0113	-22.2115	-47.7972	79.9089	-50.9684	-62.3144	106.011	-42.1567	-11.0067	92.2224	-69.9877	-18.1271	82.4983	-77.8251	19.4834	119.983	-67.7163	2.64716	97.0351	-85.9156	12.3349	91.1234	-75.1909	45.3145	130.014	-18.6281	40.434	141.976	-15.5462	74.2965	106.477	-2.91409	65.5382	
140	1.16667	70.7408	-23.1105	80.6924	42.4351	-41.4779	66.4703	24.0861	-58.1526	45.0809	21.582	-72.3783	19.2	72.3456	1.18804	5.72553	60.4392	-2.58757	-28.4084	43.6318	-21.7511	-46.4797	99.4751	-9.36566	-9.75311	87.6161	-24.7978	-45.7628	75.213	-59.2902	-52.8565	109.037	-45.4091	-13.0805	88.7066	-70.3137	-16.0703	83.6587	-78.4063	21.9483	120.676	-64.9479	5.74158	96.2182	-85.2832	14.6608	91.6873	-69.308	48.2194	134.557	-22.5572	43.0494	140.942	-17.798	73.214	103.822	-1.30132	66.1553	
141	1.175	68.437	-22.4925	84.9016	44.8657	-42.5634	62.6279	23.3876	-58.5176	39.5909	27.13	-74.3594	17.7581	70.6469	2.92238	2.20268	61.9982	-2.94399	-27.1283	47.1518	-26.9176	-44.2466	101.675	-12.2674	-11.0084	85.8778	-26.4139	-43.6027	71.3472	-61.2091	-45.6216	103.487	-45.058	-12.843	88.9033	-73.1452	-12.8812	79.9859	-77.0672	19.6532	121.468	-67.6786	6.07752	94.5868	-85.5425	20.6155	95.0371	-71.9916	48.27	130.439	-19.1743	41.005	144.386	-17.7795	75.1557	108.291	-3.27046	64.5279	
142	1.18333	67.269	-22.2384	79.9955	41.5723	-41.045	65.1173	23.7415	-58.1419	38.7202	25.7092	-73.9498	18.5142	73.7811	1.22499	2.08605	59.5628	-2.0727	-25.9635	45.0021	-25.1984	-44.3366	100.542	-11.6044	-13.7493	90.215	-28.603	-43.028	68.7598	-65.7126	-41.4863	104.468	-47.7816	-14.3096	87.4824	-70.289	-14.9525	81.4478	-76.1522	25.2495	118.34	-68.2166	4.97461	93.9043	-84.866	17.9499	94.2396	-72.6286	51.0404	131.412	-20.7851	44.3412	144.409	-17.8707	70.7624	105.369	-0.183621	64.4761	
143	1.19167	70.3898	-21.9299	78.8182	43.6374	-39.6898	66.4657	21.2672	-56.4297	40.3728	20.2855	-70.8304	15.9425	73.1418	1.40137	4.72261	57.9688	-1.41902	-28.3291	47.246	-24.3272	-47.2217	101.098	-11.1581	-11.6445	90.7013	-27.1923	-44.4514	68.4939	-62.0812	-47.2271	106.274	-44.7059	-10.4242	87.6537	-75.4945	-10.6981	80.5006	-76.5672	23.0493	120.148	-66.7259	5.54945	95.8347	-86.5406	18.263	90.0952	-69.2517	47.6151	130.529	-17.9825	38.8693	142.016	-18.086	76.6404	105.801	-3.24144	63.739	
144	1.2	72.1021	-21.2934	84.258	43.0921	-39.0455	66.854	22.6934	-53.5874	43.6397	12.6508	-67.9611	23.0416	72.8021	3.24397	1.4288	61.8911	-0.168772	-29.5786	45.1617	-14.969	-48.2828	98.7267	-9.60574	-10.2246	89.9973	-24.7924	-45.9548	72.2444	-54.3528	-56.9674	105.382	-45.8168	-13.4182	90.2588	-71.3608	-15.1206	81.6192	-77.3287	23.4873	120.104	-68.4513	3.88606	92.1449	-85.4447	19.2655	89.6783	-72.2078	44.4593	130.696	-20.8259	38.6156	142.661	-16.8569	76.609	107.416	-0.249543	62.3996	
145	1.20833	72.2041	-21.9592	82.6551	45.218	-39.2141	64.5581	19.7343	-53.0798	47.3277	8.22295	-65.8161	26.7758	74.7396	0.941291	0.106239	62.402	2.07839	-26.2095	46.6087	-10.753	-51.0031	101.685	-8.89758	-10.3694	92.9975	-19.0821	-46.2905	78.5987	-47.3951	-65.6231	106.294	-43.3244	-13.5702	88.0919	-71.2259	-16.0887	82.3037	-78.1657	19.8834	120.021	-65.2543	3.25165	95.1725	-85.4961	13.8387	91.9555	-76.2579	45.8424	135.663	-21.7324	41.1935	143.518	-17.6478	74.2494	110.232	-1.93758	63.2569	
146	1.21667	71.2885	-21.5398	79.3441	48.0706	-38.9712	66.9884	20.1467	-51.5422	46.2698	7.36639	-65.0211	31.487	71.7258	3.4705	0.138045	61.034	3.24976	-23.3807	50.3338	-8.96323	-54.1943	101.784	-8.89308	-11.0402	95.3214	-17.0769	-47.4348	81.7238	-41.5944	-73.2501	108.982	-42.7064	-12.0445	90.1411	-69.7585	-17.1732	81.3327	-78.6189	15.6444	120.066	-67.4119	0.385577	94.7993	-85.3226	13.3368	90.0831	-71.8358	42.6113	132.334	-17.4021	38.7948	143.574	-18.9226	72.3678	108.922	-2.94623	65.6405	
147	1.225	70.0627	-21.6164	80.6441	47.2696	-39.5986	67.1729	21.4426	-51.7248	48.0795	6.87375	-64.0011	31.2864	75.6684	0.25282	1.29696	64.0066	2.58555	-26.5011	51.3697	-5.43484	-54.6585	104.662	-9.17942	-14.2758	95.3453	-14.6874	-49.8839	82.9231	-32.5242	-76.7398	108.02	-40.9445	-13.374	92.4277	-67.4951	-20.9025	81.2897	-79.4466	12.6013	121.241	-61.7813	1.85134	98.9318	-85.7302	9.3756	90.2062	-79.3893	40.1031	133.387	-18.1019	41.2291	141.483	-17.3853	71.2012	109.969	-3.58644	65.4756	
148	1.23333	72.259	-22.2165	80.6966	44.8378	-39.3339	65.8929	18.026	-50.7798	46.4045	3.54891	-63.2841	32.8845	73.5202	2.75216	0.102704	63.5635	2.85925	-29.18	50.5355	-0.90579	-54.9079	102.312	-7.78096	-14.1478	99.1774	-12.744	-45.7895	89.1424	-29.6874	-77.813	106.923	-40.5278	-15.6172	93.4451	-67.7551	-22.365	80.384	-77.9559	10.9946	121.271	-64.6592	-1.72178	98.831	-88.1069	10.2838	90.6876	-76.4873	40.7541	133.726	-19.697	38.6892	142.654	-16.4569	73.0146	110.938	-1.75647	64.6737	
149	1.24167	70.1115	-22.2628	82.6437	48.7255	-39.1479	68.4361	17.4289	-50.8272	48.0028	6.18675	-63.9376	30.189	77.0489	1.57999	1.23261	66.6953	3.41463	-25.138	57.1368	-0.0243075	-52.1396	102.624	-7.08177	-11.3382	98.0757	-11.7109	-45.8834	91.7656	-26.7672	-78.1208	107.447	-39.1921	-14.4524	93.5663	-64.7309	-22.2615	81.8434	-78.7259	13.6631	120.687	-64.0346	-1.52603	98.2104	-86.0514	8.34146	90.0143	-76.6963	39.5082	133.665	-17.4093	40.6141	144.965	-16.7424	72.3916	106.392	-0.791132	64.2801	
150	1.25	72.088	-21.335	82.7454	46.9124	-38.1323	64.5136	21.4615	-50.0469	47.5603	3.96837	-61.206	29.4256	74.9409	3.60388	3.09264	64.1358	7.23838	-23.7135	51.7893	0.351415	-55.3543	105.108	-6.97478	-13.7266	100.402	-12.9947	-48.8464	91.7295	-29.4999	-78.2283	110.462	-39.1265	-13.4072	91.661	-67.402	-21.0083	80.7111	-76.9108	9.6038	121.568	-60.7799	0.120105	100.301	-84.3828	5.90684	90.5887	-77.9327	39.2297	133.212	-16.0437	38.8445	142.905	-15.3735	71.4436	108.15	-1.015	63.2754	
151	1.25833	70.804	-19.9487	80.2244	45.7932	-37.202	66.4612	23.4144	-48.5379	42.5058	8.81902	-61.4251	25.6559	75.2918	4.2508	3.91155	68.3429	5.20613	-25.2833	54.7033	-4.11535	-56.1439	107.186	-7.48551	-10.7006	101.271	-12.8992	-46.7992	88.1052	-32.156	-72.8889	111.825	-42.6075	-17.5063	93.0075	-68.4664	-20.6462	83.5052	-77.358	10.0171	125.104	-64.3474	0.196476	98.0614	-84.9145	9.75776	93.3466	-75.0814	41.7696	133.56	-17.0798	40.4341	147.646	-18.2691	74.926	108.617	-1.3437	64.3554	
152	1.26667	75.0743	-21.2899	80.3572	47.7044	-36.309	66.4529	19.3171	-48.0726	41.337	9.33688	-59.6123	23.1592	80.1941	2.90988	2.39732	68.6493	5.38031	-27.6194	55.8184	-9.2504	-53.3303	108.333	-7.0951	-15.9845	98.2207	-16.1416	-47.9425	86.3451	-44.373	-68.3703	112.16	-41.7529	-13.4935	92.6717	-64.2197	-21.159	80.933	-75.2968	11.4245	121.608	-63.3132	1.95951	97.4002	-86.3512	14.4598	92.8184	-74.577	40.9436	139.228	-19.596	39.8995	143.207	-18.7152	76.5247	108.89	-1.93698	66.7084	
